<svg width="32" height="32" viewBox="0 0 32 32" fill="none" xmlns="http://www.w3.org/2000/svg">
<g filter="url(#filter0_d_0_183)">
<path d="M16 0C12.74 0 12.333 0.015 11.053 0.072C9.775 0.132 8.905 0.333 8.14 0.63C7.351 0.936 6.681 1.347 6.014 2.014C5.347 2.681 4.935 3.35 4.63 4.14C4.333 4.905 4.131 5.775 4.072 7.053C4.012 8.333 4 8.74 4 12C4 15.26 4.015 15.667 4.072 16.947C4.132 18.224 4.333 19.095 4.63 19.86C4.936 20.648 5.347 21.319 6.014 21.986C6.681 22.652 7.35 23.065 8.14 23.37C8.906 23.666 9.776 23.869 11.053 23.928C12.333 23.988 12.74 24 16 24C19.26 24 19.667 23.985 20.947 23.928C22.224 23.868 23.095 23.666 23.86 23.37C24.648 23.064 25.319 22.652 25.986 21.986C26.652 21.319 27.065 20.651 27.37 19.86C27.666 19.095 27.869 18.224 27.928 16.947C27.988 15.667 28 15.26 28 12C28 8.74 27.985 8.333 27.928 7.053C27.868 5.776 27.666 4.904 27.37 4.14C27.064 3.351 26.652 2.681 25.986 2.014C25.319 1.347 24.651 0.935 23.86 0.63C23.095 0.333 22.224 0.131 20.947 0.072C19.667 0.012 19.26 0 16 0ZM16 2.16C19.203 2.16 19.585 2.176 20.85 2.231C22.02 2.286 22.655 2.48 23.077 2.646C23.639 2.863 24.037 3.123 24.459 3.542C24.878 3.962 25.138 4.361 25.355 4.923C25.519 5.345 25.715 5.98 25.768 7.15C25.825 8.416 25.838 8.796 25.838 12C25.838 15.204 25.823 15.585 25.764 16.85C25.703 18.02 25.508 18.655 25.343 19.077C25.119 19.639 24.864 20.037 24.444 20.459C24.025 20.878 23.62 21.138 23.064 21.355C22.644 21.519 21.999 21.715 20.829 21.768C19.555 21.825 19.18 21.838 15.97 21.838C12.759 21.838 12.384 21.823 11.111 21.764C9.94 21.703 9.295 21.508 8.875 21.343C8.306 21.119 7.915 20.864 7.496 20.444C7.075 20.025 6.806 19.62 6.596 19.064C6.431 18.644 6.237 17.999 6.176 16.829C6.131 15.569 6.115 15.18 6.115 11.985C6.115 8.789 6.131 8.399 6.176 7.124C6.237 5.954 6.431 5.31 6.596 4.89C6.806 4.32 7.075 3.93 7.496 3.509C7.915 3.09 8.306 2.82 8.875 2.611C9.295 2.445 9.926 2.25 11.096 2.19C12.371 2.145 12.746 2.13 15.955 2.13L16 2.16ZM16 5.838C12.595 5.838 9.838 8.598 9.838 12C9.838 15.405 12.598 18.162 16 18.162C19.405 18.162 22.162 15.402 22.162 12C22.162 8.595 19.402 5.838 16 5.838ZM16 16C13.79 16 12 14.21 12 12C12 9.79 13.79 8 16 8C18.21 8 20 9.79 20 12C20 14.21 18.21 16 16 16ZM23.846 5.595C23.846 6.39 23.2 7.035 22.406 7.035C21.611 7.035 20.966 6.389 20.966 5.595C20.966 4.801 21.612 4.156 22.406 4.156C23.199 4.155 23.846 4.801 23.846 5.595Z" fill="white"/>
</g>
<defs>
<filter id="filter0_d_0_183" x="0" y="0" width="32" height="32" filterUnits="userSpaceOnUse" color-interpolation-filters="sRGB">
<feFlood flood-opacity="0" result="BackgroundImageFix"/>
<feColorMatrix in="SourceAlpha" type="matrix" values="0 0 0 0 0 0 0 0 0 0 0 0 0 0 0 0 0 0 127 0" result="hardAlpha"/>
<feOffset dy="4"/>
<feGaussianBlur stdDeviation="2"/>
<feComposite in2="hardAlpha" operator="out"/>
<feColorMatrix type="matrix" values="0 0 0 0 0 0 0 0 0 0 0 0 0 0 0 0 0 0 0.25 0"/>
<feBlend mode="normal" in2="BackgroundImageFix" result="effect1_dropShadow_0_183"/>
<feBlend mode="normal" in="SourceGraphic" in2="effect1_dropShadow_0_183" result="shape"/>
</filter>
</defs>
</svg>
